<svg width="28" height="58" viewBox="0 0 28 58" fill="none" xmlns="http://www.w3.org/2000/svg">
<g filter="url(#filter0_f_1624_5827)">
<path d="M7 52.0711C7 51.4795 7.47953 51 8.07107 51H19.9289C20.5205 51 21 51.4795 21 52.0711C21 52.6041 20.6081 53.056 20.0804 53.1314L14.9899 53.8586C14.3333 53.9524 13.6667 53.9524 13.01 53.8586L7.9196 53.1314C7.39193 53.056 7 52.6041 7 52.0711Z" fill="black" fill-opacity="0.5"/>
</g>
<path d="M27.9447 13.8075C28.1367 6.07889 21.731 0 14 0C6.26897 0 -0.13665 6.07889 0.055275 13.8075C0.150467 17.6408 0.384817 21.6437 0.879477 24.9114C2.60674 36.3215 9.91241 44.2079 12.8094 46.9412C13.4902 47.5836 14.5098 47.5836 15.1906 46.9412C18.0876 44.2079 25.3933 36.3215 27.1205 24.9114C27.6152 21.6437 27.8495 17.6408 27.9447 13.8075Z" fill="#3E294D"/>
<rect x="2" y="2" width="24" height="24" rx="12" fill="white"/>
<path d="M7.08478 13.0342C6.82198 13.2219 6.66602 13.525 6.66602 13.848V19C6.66602 19.5523 7.11373 20 7.66602 20H8.99935C9.55163 20 9.99935 19.5523 9.99935 19V17C9.99935 16.4477 10.4471 16 10.9993 16H11.666C12.2183 16 12.666 16.4477 12.666 17V19C12.666 19.5523 13.1137 20 13.666 20H14.9993C15.5516 20 15.9993 19.5523 15.9993 19V13.848C15.9993 13.525 15.8434 13.2219 15.5806 13.0342L11.9139 10.4152C11.5662 10.1668 11.0991 10.1668 10.7514 10.4152L7.08478 13.0342Z" fill="#F2B518"/>
<path d="M13.666 8C13.1137 8 12.666 8.44772 12.666 9V9.31333L17.3327 12.6467V13.3333H18.666V14.6667H17.3327V16H18.666V17.3333H17.3327V19C17.3327 19.5523 17.7804 20 18.3327 20H21.3327V9C21.3327 8.44772 20.885 8 20.3327 8H13.666ZM18.666 12H17.3327V10.6667H18.666V12Z" fill="#F2B518"/>
<defs>
<filter id="filter0_f_1624_5827" x="3" y="47" width="22" height="10.9289" filterUnits="userSpaceOnUse" color-interpolation-filters="sRGB">
<feFlood flood-opacity="0" result="BackgroundImageFix"/>
<feBlend mode="normal" in="SourceGraphic" in2="BackgroundImageFix" result="shape"/>
<feGaussianBlur stdDeviation="2" result="effect1_foregroundBlur_1624_5827"/>
</filter>
</defs>
</svg>
