<svg width="28" height="58" viewBox="0 0 28 58" fill="none" xmlns="http://www.w3.org/2000/svg">
<g filter="url(#filter0_f_1620_5641)">
<path d="M7 52.0711C7 51.4795 7.47953 51 8.07107 51H19.9289C20.5205 51 21 51.4795 21 52.0711C21 52.6041 20.6081 53.056 20.0804 53.1314L14.9899 53.8586C14.3333 53.9524 13.6667 53.9524 13.01 53.8586L7.9196 53.1314C7.39193 53.056 7 52.6041 7 52.0711Z" fill="black" fill-opacity="0.5"/>
</g>
<path d="M27.9447 13.8075C28.1367 6.07889 21.731 0 14 0C6.26897 0 -0.13665 6.07889 0.055275 13.8075C0.150467 17.6408 0.384817 21.6437 0.879477 24.9114C2.60674 36.3215 9.91241 44.2079 12.8094 46.9412C13.4902 47.5836 14.5098 47.5836 15.1906 46.9412C18.0876 44.2079 25.3933 36.3215 27.1205 24.9114C27.6152 21.6437 27.8495 17.6408 27.9447 13.8075Z" fill="#3E294D"/>
<rect x="2" y="2" width="24" height="24" rx="12" fill="white"/>
<path d="M20.6678 8.6066L20.5878 7.7666L19.7878 8.03327C18.4168 8.50963 16.9527 8.65581 15.5145 8.45993C14.0033 8.22541 12.4565 8.43381 11.0612 9.05993C10.3215 9.3749 9.67235 9.86988 9.17283 10.4998C8.67331 11.1297 8.33929 11.8746 8.20118 12.6666C8.0221 13.6897 8.11169 14.7418 8.46118 15.7199C8.68622 15.212 8.94918 14.7217 9.24785 14.2533C9.92531 13.2565 10.864 12.4654 11.9612 11.9666C13.0181 11.484 14.1734 11.2557 15.3345 11.2999C14.2292 11.4689 13.1712 11.8663 12.2278 12.4666C11.7728 12.7525 11.3561 13.0953 10.9878 13.4866C10.6356 13.8778 10.3251 14.3045 10.0612 14.7599C9.56553 15.7119 9.21286 16.7318 9.01451 17.7866C8.80072 18.8448 8.68468 19.9205 8.66785 20.9999H10.0012C10.0638 20.0318 10.1953 19.0694 10.3945 18.1199C11.3195 18.6194 12.3567 18.8741 13.4078 18.8599C14.3882 18.8593 15.3584 18.662 16.2612 18.2799C21.3345 16.1133 20.6678 8.9066 20.6678 8.6066Z" fill="#65BF73"/>
<defs>
<filter id="filter0_f_1620_5641" x="3" y="47" width="22" height="10.9289" filterUnits="userSpaceOnUse" color-interpolation-filters="sRGB">
<feFlood flood-opacity="0" result="BackgroundImageFix"/>
<feBlend mode="normal" in="SourceGraphic" in2="BackgroundImageFix" result="shape"/>
<feGaussianBlur stdDeviation="2" result="effect1_foregroundBlur_1620_5641"/>
</filter>
</defs>
</svg>
