<svg width="28" height="58" viewBox="0 0 28 58" fill="none" xmlns="http://www.w3.org/2000/svg">
<g filter="url(#filter0_f_1624_5928)">
<path d="M7 52.0711C7 51.4795 7.47953 51 8.07107 51H19.9289C20.5205 51 21 51.4795 21 52.0711C21 52.6041 20.6081 53.056 20.0804 53.1314L14.9899 53.8586C14.3333 53.9524 13.6667 53.9524 13.01 53.8586L7.9196 53.1314C7.39193 53.056 7 52.6041 7 52.0711Z" fill="black" fill-opacity="0.5"/>
</g>
<path d="M27.9447 13.8075C28.1367 6.07889 21.731 0 14 0C6.26897 0 -0.13665 6.07889 0.055275 13.8075C0.150467 17.6408 0.384817 21.6437 0.879477 24.9114C2.60674 36.3215 9.91241 44.2079 12.8094 46.9412C13.4902 47.5836 14.5098 47.5836 15.1906 46.9412C18.0876 44.2079 25.3933 36.3215 27.1205 24.9114C27.6152 21.6437 27.8495 17.6408 27.9447 13.8075Z" fill="#3E294D"/>
<rect x="2" y="2" width="24" height="24" rx="12" fill="white"/>
<path d="M17.9467 15.3499L21.3307 17.3037C21.8512 16.1486 22.0899 14.8863 22.0272 13.6209C21.2583 13.5611 20.4863 13.687 19.7761 13.9879C19.066 14.2888 18.4386 14.7559 17.9467 15.3499ZM10.8583 11.2575C11.1268 10.5345 11.2176 9.75751 11.1231 8.99207C11.0287 8.22663 10.7517 7.49509 10.3154 6.85906C9.18817 7.43748 8.2144 8.27535 7.47428 9.30369L10.8583 11.2575ZM16.5401 14.5379C17.1513 13.731 17.9443 13.0799 18.8547 12.6375C19.7651 12.1951 20.7671 11.974 21.7792 11.9922C21.3133 10.1712 20.2222 8.57193 18.6968 7.4738L15.0988 13.7057L16.5401 14.5379ZM12.2648 12.0695L13.7062 12.9017L17.3042 6.66978C15.5909 5.89599 13.6597 5.75074 11.8499 6.25955C12.3717 7.1269 12.6812 8.10522 12.7533 9.11484C12.8254 10.1245 12.658 11.1368 12.2648 12.0695ZM15.7361 15.9305L14.2948 15.0983L10.6968 21.3302C12.4101 22.104 14.3413 22.2493 16.151 21.7404C15.6293 20.8731 15.3197 19.8948 15.2476 18.8852C15.1755 17.8755 15.3429 16.8632 15.7361 15.9305ZM5.97372 14.3791C6.74236 14.4361 7.5135 14.3089 8.22317 14.0082C8.93283 13.7075 9.56056 13.2419 10.0543 12.6501L6.67026 10.6963C6.13443 11.8817 5.91438 13.1472 5.97372 14.3791ZM17.1426 16.7425C16.8741 17.4655 16.7833 18.2425 16.8778 19.0079C16.9723 19.7734 17.2493 20.5049 17.6855 21.1409C18.8128 20.5625 19.7865 19.7246 20.5267 18.6963L17.1426 16.7425ZM11.4608 13.4621C10.8497 14.269 10.0566 14.9201 9.14621 15.3625C8.23581 15.8049 7.23379 16.026 6.22177 16.0078C6.68766 17.8287 7.77869 19.4281 9.30417 20.5262L12.9022 14.2943L11.4608 13.4621Z" fill="#9259D4"/>
<defs>
<filter id="filter0_f_1624_5928" x="3" y="47" width="22" height="10.9289" filterUnits="userSpaceOnUse" color-interpolation-filters="sRGB">
<feFlood flood-opacity="0" result="BackgroundImageFix"/>
<feBlend mode="normal" in="SourceGraphic" in2="BackgroundImageFix" result="shape"/>
<feGaussianBlur stdDeviation="2" result="effect1_foregroundBlur_1624_5928"/>
</filter>
</defs>
</svg>
