<svg width="28" height="58" viewBox="0 0 28 58" fill="none" xmlns="http://www.w3.org/2000/svg">
<g filter="url(#filter0_f_1624_5916)">
<path d="M7 52.0711C7 51.4795 7.47953 51 8.07107 51H19.9289C20.5205 51 21 51.4795 21 52.0711C21 52.6041 20.6081 53.056 20.0804 53.1314L14.9899 53.8586C14.3333 53.9524 13.6667 53.9524 13.01 53.8586L7.9196 53.1314C7.39193 53.056 7 52.6041 7 52.0711Z" fill="black" fill-opacity="0.5"/>
</g>
<path d="M27.9447 13.8075C28.1367 6.07889 21.731 0 14 0C6.26897 0 -0.13665 6.07889 0.055275 13.8075C0.150467 17.6408 0.384817 21.6437 0.879477 24.9114C2.60674 36.3215 9.91241 44.2079 12.8094 46.9412C13.4902 47.5836 14.5098 47.5836 15.1906 46.9412C18.0876 44.2079 25.3933 36.3215 27.1205 24.9114C27.6152 21.6437 27.8495 17.6408 27.9447 13.8075Z" fill="#3E294D"/>
<rect x="2" y="2" width="24" height="24" rx="12" fill="white"/>
<path d="M9.00657 6.6875C8.584 6.6875 8.18914 6.88086 7.9259 7.21484L7.47909 7.77734C7.19507 8.13945 6.67205 8.19922 6.31183 7.90742C5.95161 7.61562 5.89619 7.08828 6.18368 6.72266L6.62356 6.16016C7.202 5.42891 8.0783 5 9.00657 5H18.5109C19.4357 5 20.312 5.42891 20.8904 6.16016L21.3338 6.72266C21.6213 7.08828 21.5624 7.61914 21.2056 7.90742C20.8489 8.1957 20.3224 8.13945 20.0384 7.77734L19.595 7.21484C19.3318 6.88086 18.9334 6.6875 18.5143 6.6875H14.59V8.375H15.9755C17.8112 8.375 19.3006 9.88672 19.3006 11.75V17.375C19.3006 18.4508 18.8053 19.407 18.0329 20.0258L20.3016 22.3285C20.5475 22.5781 20.3743 23 20.028 23H18.6529C18.3585 23 18.0779 22.8805 17.8701 22.6695L15.9755 20.75H11.542L9.65081 22.6695C9.44299 22.8805 9.16243 23 8.86802 23H7.48948C7.14311 23 6.96993 22.5746 7.21585 22.3285L9.48455 20.0258C8.71216 19.407 8.21685 18.4508 8.21685 17.375V11.75C8.21685 9.88672 9.70623 8.375 11.542 8.375H12.9274V6.6875H9.00657ZM11.542 10.625C10.9289 10.625 10.4336 11.1277 10.4336 11.75V12.875C10.4336 13.4973 10.9289 14 11.542 14H15.9755C16.5885 14 17.0838 13.4973 17.0838 12.875V11.75C17.0838 11.1277 16.5885 10.625 15.9755 10.625H11.542ZM12.6503 17.375C12.6503 16.7527 12.155 16.25 11.542 16.25C10.9289 16.25 10.4336 16.7527 10.4336 17.375C10.4336 17.9973 10.9289 18.5 11.542 18.5C12.155 18.5 12.6503 17.9973 12.6503 17.375ZM15.9755 18.5C16.5885 18.5 17.0838 17.9973 17.0838 17.375C17.0838 16.7527 16.5885 16.25 15.9755 16.25C15.3624 16.25 14.8671 16.7527 14.8671 17.375C14.8671 17.9973 15.3624 18.5 15.9755 18.5Z" fill="#3861CC"/>
<defs>
<filter id="filter0_f_1624_5916" x="3" y="47" width="22" height="10.9289" filterUnits="userSpaceOnUse" color-interpolation-filters="sRGB">
<feFlood flood-opacity="0" result="BackgroundImageFix"/>
<feBlend mode="normal" in="SourceGraphic" in2="BackgroundImageFix" result="shape"/>
<feGaussianBlur stdDeviation="2" result="effect1_foregroundBlur_1624_5916"/>
</filter>
</defs>
</svg>
