<svg width="28" height="58" viewBox="0 0 28 58" fill="none" xmlns="http://www.w3.org/2000/svg">
<g filter="url(#filter0_f_1624_5970)">
<path d="M7 52.0711C7 51.4795 7.47953 51 8.07107 51H19.9289C20.5205 51 21 51.4795 21 52.0711C21 52.6041 20.6081 53.056 20.0804 53.1314L14.9899 53.8586C14.3333 53.9524 13.6667 53.9524 13.01 53.8586L7.9196 53.1314C7.39193 53.056 7 52.6041 7 52.0711Z" fill="black" fill-opacity="0.5"/>
</g>
<path d="M27.9447 13.8075C28.1367 6.07889 21.731 0 14 0C6.26897 0 -0.13665 6.07889 0.055275 13.8075C0.150467 17.6408 0.384817 21.6437 0.879477 24.9114C2.60674 36.3215 9.91241 44.2079 12.8094 46.9412C13.4902 47.5836 14.5098 47.5836 15.1906 46.9412C18.0876 44.2079 25.3933 36.3215 27.1205 24.9114C27.6152 21.6437 27.8495 17.6408 27.9447 13.8075Z" fill="#3E294D"/>
<rect x="2" y="2" width="24" height="24" rx="12" fill="white"/>
<path fill-rule="evenodd" clip-rule="evenodd" d="M7.96599 7.37939C7.28064 7.37939 6.72461 7.93543 6.72461 8.62077V19.3794C6.72461 20.0647 7.28064 20.6208 7.96599 20.6208H10.4487V18.5518C10.4487 17.8665 11.0048 17.3104 11.6901 17.3104C12.3755 17.3104 12.9315 17.8665 12.9315 18.5518V20.6208H15.4143C15.8048 20.6208 16.1513 20.4423 16.3789 20.1604C15.5281 19.3328 15.0005 18.1768 15.0005 16.8966C15.0005 15.482 15.6444 14.2199 16.6556 13.3846V8.62077C16.6556 7.93543 16.0996 7.37939 15.4143 7.37939H7.96599ZM8.37978 13.5863C8.37978 13.3587 8.56599 13.1725 8.79357 13.1725H9.62116C9.84875 13.1725 10.035 13.3587 10.035 13.5863V14.4139C10.035 14.6415 9.84875 14.8277 9.62116 14.8277H8.79357C8.56599 14.8277 8.37978 14.6415 8.37978 14.4139V13.5863ZM10.8625 14.4139V13.5863C10.8625 13.3587 11.0487 13.1725 11.2763 13.1725H12.1039C12.3315 13.1725 12.5177 13.3587 12.5177 13.5863V14.4139C12.5177 14.6415 12.3315 14.8277 12.1039 14.8277H11.2763C11.0487 14.8277 10.8625 14.6415 10.8625 14.4139ZM13.3453 13.5863C13.3453 13.3587 13.5315 13.1725 13.7591 13.1725H14.5867C14.8143 13.1725 15.0005 13.3587 15.0005 13.5863V14.4139C15.0005 14.6415 14.8143 14.8277 14.5867 14.8277H13.7591C13.5315 14.8277 13.3453 14.6415 13.3453 14.4139V13.5863ZM8.37978 11.1035V10.2759C8.37978 10.0484 8.56599 9.86215 8.79357 9.86215H9.62116C9.84875 9.86215 10.035 10.0484 10.035 10.2759V11.1035C10.035 11.3311 9.84875 11.5173 9.62116 11.5173H8.79357C8.56599 11.5173 8.37978 11.3311 8.37978 11.1035ZM10.8625 10.2759C10.8625 10.0484 11.0487 9.86215 11.2763 9.86215H12.1039C12.3315 9.86215 12.5177 10.0484 12.5177 10.2759V11.1035C12.5177 11.3311 12.3315 11.5173 12.1039 11.5173H11.2763C11.0487 11.5173 10.8625 11.3311 10.8625 11.1035V10.2759ZM13.3453 11.1035V10.2759C13.3453 10.0484 13.5315 9.86215 13.7591 9.86215H14.5867C14.8143 9.86215 15.0005 10.0484 15.0005 10.2759V11.1035C15.0005 11.3311 14.8143 11.5173 14.5867 11.5173H13.7591C13.5315 11.5173 13.3453 11.3311 13.3453 11.1035ZM19.5522 20.6208C21.6082 20.6208 23.2763 18.9527 23.2763 16.8966C23.2763 14.8406 21.6082 13.1725 19.5522 13.1725C17.4962 13.1725 15.8281 14.8406 15.8281 16.8966C15.8281 18.9527 17.4962 20.6208 19.5522 20.6208ZM21.5202 14.9459C21.5848 15.0105 21.6212 15.0982 21.6212 15.1896V17.9296C21.6212 18.021 21.5848 18.1087 21.5202 18.1733C21.4556 18.238 21.3679 18.2743 21.2765 18.2743C21.1851 18.2743 21.0974 18.238 21.0328 18.1733C20.9682 18.1087 20.9318 18.021 20.9318 17.9296V16.0064L18.0746 18.8637C18.0426 18.896 18.0044 18.9216 17.9624 18.9391C17.9204 18.9566 17.8754 18.9656 17.8299 18.9656C17.7844 18.9656 17.7393 18.9566 17.6973 18.9391C17.6553 18.9216 17.6172 18.896 17.5852 18.8637C17.5529 18.8316 17.5272 18.7935 17.5097 18.7515C17.4922 18.7095 17.4832 18.6644 17.4832 18.6189C17.4832 18.5734 17.4922 18.5284 17.5097 18.4864C17.5272 18.4444 17.5529 18.4063 17.5852 18.3742L20.4355 15.517H18.5192C18.4278 15.517 18.3401 15.4807 18.2755 15.416C18.2109 15.3514 18.1746 15.2637 18.1746 15.1723C18.1746 15.0809 18.2109 14.9933 18.2755 14.9286C18.3401 14.864 18.4278 14.8277 18.5192 14.8277L21.2765 14.8449C21.3679 14.8449 21.4556 14.8812 21.5202 14.9459Z" fill="#7B61FF"/>
<defs>
<filter id="filter0_f_1624_5970" x="3" y="47" width="22" height="10.9289" filterUnits="userSpaceOnUse" color-interpolation-filters="sRGB">
<feFlood flood-opacity="0" result="BackgroundImageFix"/>
<feBlend mode="normal" in="SourceGraphic" in2="BackgroundImageFix" result="shape"/>
<feGaussianBlur stdDeviation="2" result="effect1_foregroundBlur_1624_5970"/>
</filter>
</defs>
</svg>
