<svg width="38" height="63" viewBox="0 0 38 63" fill="none" xmlns="http://www.w3.org/2000/svg">
<g filter="url(#filter0_f_1656_7717)">
<path d="M12 57.0711C12 56.4795 12.4795 56 13.0711 56H24.9289C25.5205 56 26 56.4795 26 57.0711C26 57.6041 25.6081 58.056 25.0804 58.1314L19.9899 58.8586C19.3333 58.9524 18.6667 58.9524 18.01 58.8586L12.9196 58.1314C12.3919 58.056 12 57.6041 12 57.0711Z" fill="black" fill-opacity="0.5"/>
</g>
<path d="M33.4573 14.9897C33.6886 6.81972 27.1732 0 19 0C10.8267 0 4.31135 6.81968 4.5427 14.9896C4.66018 19.1381 4.75 23.4795 4.75 27.0559C4.75 32.7332 15.2537 47.1457 18.2253 51.1095C18.6183 51.6338 19.3817 51.6338 19.7747 51.1095C22.7464 47.1457 33.25 32.7332 33.25 27.0559C33.25 23.4795 33.3398 19.1382 33.4573 14.9897Z" fill="#3E294D"/>
<rect x="1.5" y="1.5" width="35" height="35" rx="17.5" fill="white" stroke="#3E294D" stroke-width="3"/>
<path d="M8.41876 17.7009C8.15597 17.8886 8 18.1917 8 18.5146V27C8 27.5523 8.44772 28 9 28H12C12.5523 28 13 27.5523 13 27V23C13 22.4477 13.4477 22 14 22H16C16.5523 22 17 22.4477 17 23V27C17 27.5523 17.4477 28 18 28H21C21.5523 28 22 27.5523 22 27V18.5146C22 18.1917 21.844 17.8886 21.5812 17.7009L15.5812 13.4152C15.2335 13.1668 14.7665 13.1668 14.4188 13.4152L8.41876 17.7009Z" fill="#F2B518"/>
<path d="M18 10C17.4477 10 17 10.4477 17 11V11.97L24 16.97V18H26V20H24V22H26V24H24V27C24 27.5523 24.4477 28 25 28H30V11C30 10.4477 29.5523 10 29 10H18ZM26 16H24V14H26V16Z" fill="#F2B518"/>
<defs>
<filter id="filter0_f_1656_7717" x="8" y="52" width="22" height="10.929" filterUnits="userSpaceOnUse" color-interpolation-filters="sRGB">
<feFlood flood-opacity="0" result="BackgroundImageFix"/>
<feBlend mode="normal" in="SourceGraphic" in2="BackgroundImageFix" result="shape"/>
<feGaussianBlur stdDeviation="2" result="effect1_foregroundBlur_1656_7717"/>
</filter>
</defs>
</svg>
