<svg width="38" height="63" viewBox="0 0 38 63" fill="none" xmlns="http://www.w3.org/2000/svg">
<g filter="url(#filter0_f_1656_7715)">
<path d="M12 57.0711C12 56.4795 12.4795 56 13.0711 56H24.9289C25.5205 56 26 56.4795 26 57.0711V57.0711C26 57.6041 25.6081 58.056 25.0804 58.1314L19.9899 58.8586C19.3333 58.9524 18.6667 58.9524 18.01 58.8586L12.9196 58.1314C12.3919 58.056 12 57.6041 12 57.0711V57.0711Z" fill="black" fill-opacity="0.5"/>
</g>
<path d="M33.4573 14.9897C33.6886 6.81972 27.1732 0 19 0V0C10.8267 0 4.31135 6.81968 4.5427 14.9896C4.66018 19.1382 4.75 23.4795 4.75 27.0559C4.75 32.7332 15.2537 47.1457 18.2253 51.1095C18.6183 51.6338 19.3817 51.6338 19.7747 51.1095C22.7464 47.1457 33.25 32.7332 33.25 27.0559C33.25 23.4795 33.3398 19.1382 33.4573 14.9897Z" fill="#3E294D"/>
<rect x="1.5" y="1.5" width="35" height="35" rx="17.5" fill="white" stroke="#3E294D" stroke-width="3"/>
<path fill-rule="evenodd" clip-rule="evenodd" d="M10.9545 10.1725C10.0407 10.1725 9.29932 10.9139 9.29932 11.8277V26.1725C9.29932 27.0863 10.0407 27.8277 10.9545 27.8277H14.2648V25.069C14.2648 24.1552 15.0062 23.4139 15.92 23.4139C16.8338 23.4139 17.5752 24.1552 17.5752 25.069V27.8277H20.8855C21.4062 27.8277 21.8683 27.5897 22.1717 27.2139C21.0372 26.1104 20.3338 24.569 20.3338 22.8621C20.3338 20.9759 21.1924 19.2932 22.5407 18.1794V11.8277C22.5407 10.9139 21.7993 10.1725 20.8855 10.1725H10.9545ZM11.5062 18.4483C11.5062 18.1449 11.7545 17.8966 12.0579 17.8966H13.1614C13.4648 17.8966 13.7131 18.1449 13.7131 18.4483V19.5518C13.7131 19.8552 13.4648 20.1035 13.1614 20.1035H12.0579C11.7545 20.1035 11.5062 19.8552 11.5062 19.5518V18.4483ZM14.8166 19.5518V18.4483C14.8166 18.1449 15.0648 17.8966 15.3683 17.8966H16.4717C16.7752 17.8966 17.0235 18.1449 17.0235 18.4483V19.5518C17.0235 19.8552 16.7752 20.1035 16.4717 20.1035H15.3683C15.0648 20.1035 14.8166 19.8552 14.8166 19.5518ZM18.1269 18.4483C18.1269 18.1449 18.3752 17.8966 18.6786 17.8966H19.7821C20.0855 17.8966 20.3338 18.1449 20.3338 18.4483V19.5518C20.3338 19.8552 20.0855 20.1035 19.7821 20.1035H18.6786C18.3752 20.1035 18.1269 19.8552 18.1269 19.5518V18.4483ZM11.5062 15.138V14.0346C11.5062 13.7311 11.7545 13.4828 12.0579 13.4828H13.1614C13.4648 13.4828 13.7131 13.7311 13.7131 14.0346V15.138C13.7131 15.4415 13.4648 15.6897 13.1614 15.6897H12.0579C11.7545 15.6897 11.5062 15.4415 11.5062 15.138ZM14.8166 14.0346C14.8166 13.7311 15.0648 13.4828 15.3683 13.4828H16.4717C16.7752 13.4828 17.0235 13.7311 17.0235 14.0346V15.138C17.0235 15.4415 16.7752 15.6897 16.4717 15.6897H15.3683C15.0648 15.6897 14.8166 15.4415 14.8166 15.138V14.0346ZM18.1269 15.138V14.0346C18.1269 13.7311 18.3752 13.4828 18.6786 13.4828H19.7821C20.0855 13.4828 20.3338 13.7311 20.3338 14.0346V15.138C20.3338 15.4415 20.0855 15.6897 19.7821 15.6897H18.6786C18.3752 15.6897 18.1269 15.4415 18.1269 15.138ZM26.4028 27.8277C29.1441 27.8277 31.3683 25.6035 31.3683 22.8621C31.3683 20.1208 29.1441 17.8966 26.4028 17.8966C23.6614 17.8966 21.4372 20.1208 21.4372 22.8621C21.4372 25.6035 23.6614 27.8277 26.4028 27.8277ZM29.0268 20.2611C29.113 20.3473 29.1614 20.4642 29.1614 20.586V24.2395C29.1614 24.3613 29.113 24.4782 29.0268 24.5644C28.9406 24.6506 28.8237 24.699 28.7018 24.699C28.58 24.699 28.4631 24.6506 28.3769 24.5644C28.2907 24.4782 28.2423 24.3613 28.2423 24.2395V21.6752L24.4326 25.4848C24.3899 25.5279 24.3391 25.5621 24.2831 25.5854C24.2271 25.6087 24.167 25.6208 24.1064 25.6208C24.0457 25.6208 23.9856 25.6087 23.9296 25.5854C23.8736 25.5621 23.8228 25.5279 23.7801 25.4848C23.737 25.4421 23.7028 25.3913 23.6795 25.3353C23.6562 25.2793 23.6441 25.2192 23.6441 25.1585C23.6441 25.0979 23.6562 25.0378 23.6795 24.9818C23.7028 24.9258 23.737 24.875 23.7801 24.8323L27.5805 21.0226H25.0255C24.9036 21.0226 24.7867 20.9742 24.7005 20.888C24.6143 20.8018 24.5659 20.6849 24.5659 20.5631C24.5659 20.4412 24.6143 20.3243 24.7005 20.2381C24.7867 20.1519 24.9036 20.1035 25.0255 20.1035L28.7018 20.1265C28.8237 20.1265 28.9406 20.1749 29.0268 20.2611Z" fill="#7B61FF"/>
<defs>
<filter id="filter0_f_1656_7715" x="8" y="52" width="22" height="10.929" filterUnits="userSpaceOnUse" color-interpolation-filters="sRGB">
<feFlood flood-opacity="0" result="BackgroundImageFix"/>
<feBlend mode="normal" in="SourceGraphic" in2="BackgroundImageFix" result="shape"/>
<feGaussianBlur stdDeviation="2" result="effect1_foregroundBlur_1656_7715"/>
</filter>
</defs>
</svg>
