<svg width="38" height="63" viewBox="0 0 38 63" fill="none" xmlns="http://www.w3.org/2000/svg">
<g filter="url(#filter0_f_1656_7714)">
<path d="M12 57.0711C12 56.4795 12.4795 56 13.0711 56H24.9289C25.5205 56 26 56.4795 26 57.0711C26 57.6041 25.6081 58.056 25.0804 58.1314L19.9899 58.8586C19.3333 58.9524 18.6667 58.9524 18.01 58.8586L12.9196 58.1314C12.3919 58.056 12 57.6041 12 57.0711Z" fill="black" fill-opacity="0.5"/>
</g>
<path d="M33.4573 16.9897C33.6886 8.81972 27.1732 2 19 2C10.8267 2 4.31135 8.81968 4.54271 16.9896C4.66018 21.1381 4.75 25.4795 4.75 29.0559C4.75 34.7332 15.2537 49.1457 18.2253 53.1095C18.6183 53.6338 19.3817 53.6338 19.7747 53.1095C22.7464 49.1457 33.25 34.7332 33.25 29.0559C33.25 25.4795 33.3398 21.1382 33.4573 16.9897Z" fill="#3E294D"/>
<rect x="1.5" y="1.5" width="35" height="35" rx="17.5" fill="white" stroke="#3E294D" stroke-width="3"/>
<g clip-path="url(#clip0_1656_7714)">
<path d="M10.3376 19.6977V22.9234C10.3376 23.7613 10.7967 24.5419 11.5314 24.9437L17.271 28.0775C17.9597 28.4563 18.7862 28.4563 19.4749 28.0775L25.2145 24.9437C25.9492 24.5419 26.4083 23.7613 26.4083 22.9234V19.6977L19.4749 23.4858C18.7862 23.8646 17.9597 23.8646 17.271 23.4858L10.3376 19.6977ZM17.271 8.60887L7.59405 13.8893C6.80198 14.3255 6.80198 15.4734 7.59405 15.9096L17.271 21.19C17.9597 21.5688 18.7862 21.5688 19.4749 21.19L28.7042 16.1507V22.9348C28.7042 23.5662 29.2207 24.0827 29.8521 24.0827C30.4834 24.0827 31 23.5662 31 22.9348V15.5767C31 15.152 30.7704 14.7732 30.4031 14.5665L19.4749 8.60887C18.7862 8.24154 17.9597 8.24154 17.271 8.60887Z" fill="#ED3D67"/>
</g>
<defs>
<filter id="filter0_f_1656_7714" x="8" y="52" width="22" height="10.929" filterUnits="userSpaceOnUse" color-interpolation-filters="sRGB">
<feFlood flood-opacity="0" result="BackgroundImageFix"/>
<feBlend mode="normal" in="SourceGraphic" in2="BackgroundImageFix" result="shape"/>
<feGaussianBlur stdDeviation="2" result="effect1_foregroundBlur_1656_7714"/>
</filter>
<clipPath id="clip0_1656_7714">
<rect width="32" height="32" fill="white" transform="translate(3 3)"/>
</clipPath>
</defs>
</svg>
