<svg width="28" height="58" viewBox="0 0 28 58" fill="none" xmlns="http://www.w3.org/2000/svg">
<g filter="url(#filter0_f_1624_5785)">
<path d="M7 52.0711C7 51.4795 7.47953 51 8.07107 51H19.9289C20.5205 51 21 51.4795 21 52.0711C21 52.6041 20.6081 53.056 20.0804 53.1314L14.9899 53.8586C14.3333 53.9524 13.6667 53.9524 13.01 53.8586L7.9196 53.1314C7.39193 53.056 7 52.6041 7 52.0711Z" fill="black" fill-opacity="0.5"/>
</g>
<path d="M27.9447 13.8075C28.1367 6.07889 21.731 0 14 0C6.26897 0 -0.13665 6.07889 0.055275 13.8075C0.150467 17.6408 0.384817 21.6437 0.879477 24.9114C2.60674 36.3215 9.91241 44.2079 12.8094 46.9412C13.4902 47.5836 14.5098 47.5836 15.1906 46.9412C18.0876 44.2079 25.3933 36.3215 27.1205 24.9114C27.6152 21.6437 27.8495 17.6408 27.9447 13.8075Z" fill="#3E294D"/>
<rect x="2" y="2" width="24" height="24" rx="12" fill="white"/>
<g clip-path="url(#clip0_1624_5785)">
<path d="M7.50317 14.5233V16.9425C7.50317 17.571 7.84754 18.1564 8.39854 18.4577L12.7032 20.8081C13.2198 21.0922 13.8397 21.0922 14.3562 20.8081L18.6609 18.4577C19.2119 18.1564 19.5563 17.571 19.5563 16.9425V14.5233L14.3562 17.3643C13.8397 17.6485 13.2198 17.6485 12.7032 17.3643L7.50317 14.5233ZM12.7032 6.20662L5.44553 10.1669C4.85149 10.4941 4.85149 11.355 5.44553 11.6822L12.7032 15.6425C13.2198 15.9266 13.8397 15.9266 14.3562 15.6425L21.2781 11.863V16.9511C21.2781 17.4246 21.6656 17.812 22.1391 17.812C22.6126 17.812 23 17.4246 23 16.9511V11.4325C23 11.114 22.8278 10.8298 22.5523 10.6749L14.3562 6.20662C13.8397 5.93113 13.2198 5.93113 12.7032 6.20662Z" fill="#ED3D67"/>
</g>
<defs>
<filter id="filter0_f_1624_5785" x="3" y="47" width="22" height="10.9289" filterUnits="userSpaceOnUse" color-interpolation-filters="sRGB">
<feFlood flood-opacity="0" result="BackgroundImageFix"/>
<feBlend mode="normal" in="SourceGraphic" in2="BackgroundImageFix" result="shape"/>
<feGaussianBlur stdDeviation="2" result="effect1_foregroundBlur_1624_5785"/>
</filter>
<clipPath id="clip0_1624_5785">
<rect width="24" height="24" fill="white" transform="translate(2 2)"/>
</clipPath>
</defs>
</svg>
