<svg width="38" height="63" viewBox="0 0 38 63" fill="none" xmlns="http://www.w3.org/2000/svg">
<g filter="url(#filter0_f_1656_7718)">
<path d="M12 57.0711C12 56.4795 12.4795 56 13.0711 56H24.9289C25.5205 56 26 56.4795 26 57.0711C26 57.6041 25.6081 58.056 25.0804 58.1314L19.9899 58.8586C19.3333 58.9524 18.6667 58.9524 18.01 58.8586L12.9196 58.1314C12.3919 58.056 12 57.6041 12 57.0711Z" fill="black" fill-opacity="0.5"/>
</g>
<path d="M33.4573 14.9897C33.6886 6.81972 27.1732 0 19 0C10.8267 0 4.31135 6.81967 4.54271 14.9896C4.66018 19.1381 4.75 23.4795 4.75 27.0559C4.75 33.663 15.2453 47.3985 18.2217 51.161C18.6206 51.6653 19.3656 51.6549 19.7515 51.1405C22.6911 47.2215 33.25 32.7481 33.25 27.0559C33.25 23.4795 33.3398 19.1382 33.4573 14.9897Z" fill="#3E294D"/>
<rect x="1.5" y="1.5" width="35" height="35" rx="17.5" fill="white" stroke="#3E294D" stroke-width="3"/>
<path d="M29.0008 9.4099L28.8808 8.1499L27.6808 8.5499C25.6242 9.26445 23.4281 9.48372 21.2708 9.1899C19.0039 8.83811 16.6837 9.15072 14.5908 10.0899C13.4813 10.5623 12.5075 11.3048 11.7583 12.2497C11.009 13.1946 10.508 14.3119 10.3008 15.4999C10.0322 17.0346 10.1666 18.6127 10.6908 20.0799C11.0283 19.318 11.4228 18.5826 11.8708 17.8799C12.887 16.3847 14.2951 15.1981 15.9408 14.4499C17.5262 13.726 19.2592 13.3835 21.0008 13.4499C19.3428 13.7034 17.7558 14.2994 16.3408 15.1999C15.6583 15.6288 15.0332 16.1429 14.4808 16.7299C13.9525 17.3166 13.4866 17.9567 13.0908 18.6399C12.3473 20.0679 11.8183 21.5977 11.5208 23.1799C11.2001 24.7672 11.026 26.3807 11.0008 27.9999H13.0008C13.0948 26.5477 13.292 25.1041 13.5908 23.6799C14.9782 24.4291 16.5341 24.8112 18.1108 24.7899C19.5813 24.7889 21.0366 24.4931 22.3908 23.9199C30.0008 20.6699 29.0008 9.8599 29.0008 9.4099Z" fill="#65BF73"/>
<defs>
<filter id="filter0_f_1656_7718" x="8" y="52" width="22" height="10.929" filterUnits="userSpaceOnUse" color-interpolation-filters="sRGB">
<feFlood flood-opacity="0" result="BackgroundImageFix"/>
<feBlend mode="normal" in="SourceGraphic" in2="BackgroundImageFix" result="shape"/>
<feGaussianBlur stdDeviation="2" result="effect1_foregroundBlur_1656_7718"/>
</filter>
</defs>
</svg>
