<svg width="38" height="63" viewBox="0 0 38 63" fill="none" xmlns="http://www.w3.org/2000/svg">
<g filter="url(#filter0_f_1656_7713)">
<path d="M12 57.0711C12 56.4795 12.4795 56 13.0711 56H24.9289C25.5205 56 26 56.4795 26 57.0711C26 57.6041 25.6081 58.056 25.0804 58.1314L19.9899 58.8586C19.3333 58.9524 18.6667 58.9524 18.01 58.8586L12.9196 58.1314C12.3919 58.056 12 57.6041 12 57.0711Z" fill="black" fill-opacity="0.5"/>
</g>
<path d="M33.4573 14.9897C33.6886 6.81972 27.1732 0 19 0C10.8267 0 4.31135 6.81968 4.5427 14.9896C4.66018 19.1381 4.75 23.4795 4.75 27.0559C4.75 32.7332 15.2537 47.1457 18.2253 51.1095C18.6183 51.6338 19.3817 51.6338 19.7747 51.1095C22.7464 47.1457 33.25 32.7332 33.25 27.0559C33.25 23.4795 33.3398 19.1382 33.4573 14.9897Z" fill="#3E294D"/>
<rect x="1.5" y="1.5" width="35" height="35" rx="17.5" fill="white" stroke="#3E294D" stroke-width="3"/>
<path d="M21.4002 9.66663H13.3335C12.7812 9.66663 12.3335 10.1143 12.3335 10.6666V27.8666C12.3335 28.4189 12.7812 28.8666 13.3335 28.8666H15.6002C16.1524 28.8666 16.6002 28.4189 16.6002 27.8666V24.5333C16.6002 23.981 17.0479 23.5333 17.6002 23.5333H21.4002C25.2231 23.5333 28.3335 20.4229 28.3335 16.6C28.3335 12.777 25.2231 9.66663 21.4002 9.66663ZM21.4002 19.2666H17.6002C17.0479 19.2666 16.6002 18.8189 16.6002 18.2666V14.9333C16.6002 14.381 17.0479 13.9333 17.6002 13.9333H21.4002C22.8711 13.9333 24.0668 15.129 24.0668 16.6C24.0668 18.0709 22.8711 19.2666 21.4002 19.2666Z" fill="#1E90E2"/>
<defs>
<filter id="filter0_f_1656_7713" x="8" y="52" width="22" height="10.929" filterUnits="userSpaceOnUse" color-interpolation-filters="sRGB">
<feFlood flood-opacity="0" result="BackgroundImageFix"/>
<feBlend mode="normal" in="SourceGraphic" in2="BackgroundImageFix" result="shape"/>
<feGaussianBlur stdDeviation="2" result="effect1_foregroundBlur_1656_7713"/>
</filter>
</defs>
</svg>
