<svg width="28" height="58" viewBox="0 0 28 58" fill="none" xmlns="http://www.w3.org/2000/svg">
<g filter="url(#filter0_f_1624_5779)">
<path d="M7 52.0711C7 51.4795 7.47953 51 8.07107 51H19.9289C20.5205 51 21 51.4795 21 52.0711C21 52.6041 20.6081 53.056 20.0804 53.1314L14.9899 53.8586C14.3333 53.9524 13.6667 53.9524 13.01 53.8586L7.9196 53.1314C7.39193 53.056 7 52.6041 7 52.0711Z" fill="black" fill-opacity="0.5"/>
</g>
<path d="M27.9447 13.8075C28.1367 6.07889 21.731 0 14 0C6.26897 0 -0.13665 6.07889 0.055275 13.8075C0.150467 17.6408 0.384817 21.6437 0.879477 24.9114C2.60674 36.3215 9.91241 44.2079 12.8094 46.9412C13.4902 47.5836 14.5098 47.5836 15.1906 46.9412C18.0876 44.2079 25.3933 36.3215 27.1205 24.9114C27.6152 21.6437 27.8495 17.6408 27.9447 13.8075Z" fill="#3E294D"/>
<rect x="2" y="2" width="24" height="24" rx="12" fill="white"/>
<path d="M15.8 7H10C9.44772 7 9 7.44772 9 8V20.4C9 20.9523 9.44772 21.4 10 21.4H11.2C11.7523 21.4 12.2 20.9523 12.2 20.4V18.4C12.2 17.8477 12.6477 17.4 13.2 17.4H15.8C18.6672 17.4 21 15.0672 21 12.2C21 9.3328 18.6672 7 15.8 7ZM15.8 14.2H13.2C12.6477 14.2 12.2 13.7523 12.2 13.2V11.2C12.2 10.6477 12.6477 10.2 13.2 10.2H15.8C16.9032 10.2 17.8 11.0968 17.8 12.2C17.8 13.3032 16.9032 14.2 15.8 14.2Z" fill="#1E90E2"/>
<defs>
<filter id="filter0_f_1624_5779" x="3" y="47" width="22" height="10.9289" filterUnits="userSpaceOnUse" color-interpolation-filters="sRGB">
<feFlood flood-opacity="0" result="BackgroundImageFix"/>
<feBlend mode="normal" in="SourceGraphic" in2="BackgroundImageFix" result="shape"/>
<feGaussianBlur stdDeviation="2" result="effect1_foregroundBlur_1624_5779"/>
</filter>
</defs>
</svg>
