<svg width="38" height="63" viewBox="0 0 38 63" fill="none" xmlns="http://www.w3.org/2000/svg">
<g filter="url(#filter0_f_1656_7712)">
<path d="M12 57.0711C12 56.4795 12.4795 56 13.0711 56H24.9289C25.5205 56 26 56.4795 26 57.0711C26 57.6041 25.6081 58.056 25.0804 58.1314L19.9899 58.8586C19.3333 58.9524 18.6667 58.9524 18.01 58.8586L12.9196 58.1314C12.3919 58.056 12 57.6041 12 57.0711Z" fill="black" fill-opacity="0.5"/>
</g>
<path d="M33.4573 15.9897C33.6886 7.81969 27.1733 1 19 1C10.8267 1 4.31135 7.81969 4.54271 15.9897C4.66018 20.1382 4.75 24.4795 4.75 28.0559C4.75 33.7332 15.2536 48.1457 18.2253 52.1095C18.6183 52.6338 19.3817 52.6338 19.7747 52.1095C22.7463 48.1457 33.25 33.7332 33.25 28.0559C33.25 24.4795 33.3398 20.1382 33.4573 15.9897Z" fill="#3E294D"/>
<rect x="1.5" y="1.5" width="35" height="35" rx="17.5" fill="white" stroke="#3E294D" stroke-width="3"/>
<path d="M11 10.7334C11 10.0969 11.2529 9.48641 11.7029 9.03632C12.153 8.58623 12.7635 8.33337 13.4 8.33337H17.9376V13.3979C17.9376 13.7131 17.9997 14.0252 18.1203 14.3163C18.2409 14.6075 18.4177 14.8721 18.6405 15.095C19.0906 15.5451 19.7011 15.7979 20.3376 15.7979H25.4V24.6C25.4 25.2366 25.1471 25.847 24.6971 26.2971C24.247 26.7472 23.6365 27 23 27H13.4C12.7635 27 12.153 26.7472 11.7029 26.2971C11.2529 25.847 11 25.2366 11 24.6V10.7334ZM15 18.4667C14.7878 18.4667 14.5843 18.551 14.4343 18.701C14.2843 18.8511 14.2 19.0545 14.2 19.2667C14.2 19.4789 14.2843 19.6824 14.4343 19.8324C14.5843 19.9824 14.7878 20.0667 15 20.0667C15.2122 20.0667 15.4157 19.9824 15.5657 19.8324C15.7157 19.6824 15.8 19.4789 15.8 19.2667C15.8 19.0545 15.7157 18.8511 15.5657 18.701C15.4157 18.551 15.2122 18.4667 15 18.4667ZM14.2 22.4667C14.2 22.6789 14.2843 22.8824 14.4343 23.0324C14.5843 23.1824 14.7878 23.2667 15 23.2667C15.2122 23.2667 15.4157 23.1824 15.5657 23.0324C15.7157 22.8824 15.8 22.6789 15.8 22.4667C15.8 22.2545 15.7157 22.0511 15.5657 21.901C15.4157 21.751 15.2122 21.6667 15 21.6667C14.7878 21.6667 14.5843 21.751 14.4343 21.901C14.2843 22.0511 14.2 22.2545 14.2 22.4667ZM17.4 19.2667C17.4 19.7083 17.7584 20.0667 18.2 20.0667H21.4576C21.6698 20.0667 21.8733 19.9824 22.0233 19.8324C22.1733 19.6824 22.2576 19.4789 22.2576 19.2667C22.2576 19.0545 22.1733 18.8511 22.0233 18.701C21.8733 18.551 21.6698 18.4667 21.4576 18.4667H18.2C17.9878 18.4667 17.7843 18.551 17.6343 18.701C17.4843 18.8511 17.4 19.0545 17.4 19.2667ZM18.2 21.6667C17.9878 21.6667 17.7843 21.751 17.6343 21.901C17.4843 22.0511 17.4 22.2545 17.4 22.4667C17.4 22.6789 17.4843 22.8824 17.6343 23.0324C17.7843 23.1824 17.9878 23.2667 18.2 23.2667H21.4576C21.6698 23.2667 21.8733 23.1824 22.0233 23.0324C22.1733 22.8824 22.2576 22.6789 22.2576 22.4667C22.2576 22.2545 22.1733 22.0511 22.0233 21.901C21.8733 21.751 21.6698 21.6667 21.4576 21.6667H18.2ZM19.5376 13.3979V8.83257C19.6187 8.89444 19.6976 8.96271 19.7701 9.03631L24.6971 13.9632C24.7717 14.0379 24.84 14.1158 24.9029 14.1979H20.3376C20.1254 14.1979 19.9219 14.1136 19.7719 13.9636C19.6219 13.8136 19.5376 13.6101 19.5376 13.3979ZM13.8043 28.0667C13.9697 28.5346 14.2761 28.9397 14.6812 29.2262C15.0864 29.5127 15.5704 29.6666 16.0667 29.6667H23C23.6654 29.6667 24.3242 29.5357 24.9389 29.281C25.5536 29.0264 26.1122 28.6532 26.5827 28.1827C27.0532 27.7122 27.4264 27.1537 27.681 26.539C27.9356 25.9243 28.0667 25.2654 28.0667 24.6V18.327C28.0665 18.0117 28.0043 17.6996 27.8835 17.4084C27.7627 17.1172 27.5857 16.8527 27.3627 16.6299L26.4667 15.7328V24.6C26.4667 25.5195 26.1014 26.4012 25.4513 27.0513C24.8012 27.7015 23.9194 28.0667 23 28.0667H13.8043Z" fill="#737373"/>
<defs>
<filter id="filter0_f_1656_7712" x="8" y="52" width="22" height="10.929" filterUnits="userSpaceOnUse" color-interpolation-filters="sRGB">
<feFlood flood-opacity="0" result="BackgroundImageFix"/>
<feBlend mode="normal" in="SourceGraphic" in2="BackgroundImageFix" result="shape"/>
<feGaussianBlur stdDeviation="2" result="effect1_foregroundBlur_1656_7712"/>
</filter>
</defs>
</svg>
