<svg width="28" height="58" viewBox="0 0 28 58" fill="none" xmlns="http://www.w3.org/2000/svg">
<g filter="url(#filter0_f_1624_5874)">
<path d="M7 52.0711C7 51.4795 7.47953 51 8.07107 51H19.9289C20.5205 51 21 51.4795 21 52.0711C21 52.6041 20.6081 53.056 20.0804 53.1314L14.9899 53.8586C14.3333 53.9524 13.6667 53.9524 13.01 53.8586L7.9196 53.1314C7.39193 53.056 7 52.6041 7 52.0711Z" fill="black" fill-opacity="0.5"/>
</g>
<path d="M27.9447 13.8075C28.1367 6.07889 21.731 0 14 0C6.26897 0 -0.13665 6.07889 0.055275 13.8075C0.150467 17.6408 0.384817 21.6437 0.879477 24.9114C2.60674 36.3215 9.91241 44.2079 12.8094 46.9412C13.4902 47.5836 14.5098 47.5836 15.1906 46.9412C18.0876 44.2079 25.3933 36.3215 27.1205 24.9114C27.6152 21.6437 27.8495 17.6408 27.9447 13.8075Z" fill="#3E294D"/>
<rect x="2" y="2" width="24" height="24" rx="12" fill="white"/>
<path d="M8 7.8C8 7.32261 8.18964 6.86477 8.52721 6.52721C8.86477 6.18964 9.32261 6 9.8 6H13.2032V9.7984C13.2032 10.0348 13.2498 10.2688 13.3402 10.4872C13.4307 10.7056 13.5633 10.904 13.7304 11.0712C14.068 11.4088 14.5258 11.5984 15.0032 11.5984H18.8V18.2C18.8 18.6774 18.6104 19.1352 18.2728 19.4728C17.9352 19.8104 17.4774 20 17 20H9.8C9.32261 20 8.86477 19.8104 8.52721 19.4728C8.18964 19.1352 8 18.6774 8 18.2V7.8ZM11 13.6C10.8409 13.6 10.6883 13.6632 10.5757 13.7757C10.4632 13.8883 10.4 14.0409 10.4 14.2C10.4 14.3591 10.4632 14.5117 10.5757 14.6243C10.6883 14.7368 10.8409 14.8 11 14.8C11.1591 14.8 11.3117 14.7368 11.4243 14.6243C11.5368 14.5117 11.6 14.3591 11.6 14.2C11.6 14.0409 11.5368 13.8883 11.4243 13.7757C11.3117 13.6632 11.1591 13.6 11 13.6ZM10.4 16.6C10.4 16.7591 10.4632 16.9117 10.5757 17.0243C10.6883 17.1368 10.8409 17.2 11 17.2C11.1591 17.2 11.3117 17.1368 11.4243 17.0243C11.5368 16.9117 11.6 16.7591 11.6 16.6C11.6 16.4409 11.5368 16.2883 11.4243 16.1757C11.3117 16.0632 11.1591 16 11 16C10.8409 16 10.6883 16.0632 10.5757 16.1757C10.4632 16.2883 10.4 16.4409 10.4 16.6ZM12.8 14.2C12.8 14.5312 13.0688 14.8 13.4 14.8H15.8432C16.0023 14.8 16.1549 14.7368 16.2675 14.6243C16.38 14.5117 16.4432 14.3591 16.4432 14.2C16.4432 14.0409 16.38 13.8883 16.2675 13.7757C16.1549 13.6632 16.0023 13.6 15.8432 13.6H13.4C13.2409 13.6 13.0883 13.6632 12.9757 13.7757C12.8632 13.8883 12.8 14.0409 12.8 14.2ZM13.4 16C13.2409 16 13.0883 16.0632 12.9757 16.1757C12.8632 16.2883 12.8 16.4409 12.8 16.6C12.8 16.7591 12.8632 16.9117 12.9757 17.0243C13.0883 17.1368 13.2409 17.2 13.4 17.2H15.8432C16.0023 17.2 16.1549 17.1368 16.2675 17.0243C16.38 16.9117 16.4432 16.7591 16.4432 16.6C16.4432 16.4409 16.38 16.2883 16.2675 16.1757C16.1549 16.0632 16.0023 16 15.8432 16H13.4ZM14.4032 9.7984V6.3744C14.464 6.4208 14.5232 6.472 14.5776 6.5272L18.2728 10.2224C18.3288 10.2784 18.38 10.3368 18.4272 10.3984H15.0032C14.8441 10.3984 14.6915 10.3352 14.5789 10.2227C14.4664 10.1101 14.4032 9.95753 14.4032 9.7984ZM10.1032 20.8C10.2273 21.1509 10.457 21.4547 10.7609 21.6696C11.0648 21.8845 11.4278 21.9999 11.8 22H17C17.499 22 17.9932 21.9017 18.4542 21.7107C18.9152 21.5198 19.3341 21.2399 19.687 20.887C20.0399 20.5341 20.3198 20.1152 20.5107 19.6542C20.7017 19.1932 20.8 18.699 20.8 18.2V13.4952C20.7999 13.2588 20.7532 13.0247 20.6626 12.8063C20.572 12.5879 20.4393 12.3895 20.272 12.2224L19.6 11.5496V18.2C19.6 18.8896 19.3261 19.5509 18.8385 20.0385C18.3509 20.5261 17.6896 20.8 17 20.8H10.1032Z" fill="#737373"/>
<defs>
<filter id="filter0_f_1624_5874" x="3" y="47" width="22" height="10.9289" filterUnits="userSpaceOnUse" color-interpolation-filters="sRGB">
<feFlood flood-opacity="0" result="BackgroundImageFix"/>
<feBlend mode="normal" in="SourceGraphic" in2="BackgroundImageFix" result="shape"/>
<feGaussianBlur stdDeviation="2" result="effect1_foregroundBlur_1624_5874"/>
</filter>
</defs>
</svg>
