<svg width="38" height="63" viewBox="0 0 38 63" fill="none" xmlns="http://www.w3.org/2000/svg">
<g filter="url(#filter0_f_1656_7716)">
<path d="M12 57.0711C12 56.4795 12.4795 56 13.0711 56H24.9289C25.5205 56 26 56.4795 26 57.0711C26 57.6041 25.6081 58.056 25.0804 58.1314L19.9899 58.8586C19.3333 58.9524 18.6667 58.9524 18.01 58.8586L12.9196 58.1314C12.3919 58.056 12 57.6041 12 57.0711Z" fill="black" fill-opacity="0.5"/>
</g>
<path d="M33.4573 14.9897C33.6886 6.81971 27.1732 0 19 0C10.8267 0 4.31135 6.81968 4.54271 14.9897C4.66018 19.1382 4.75 23.4795 4.75 27.0559C4.75 33.663 15.2453 47.3985 18.2217 51.161C18.6206 51.6653 19.3656 51.6549 19.7515 51.1405C22.6911 47.2215 33.25 32.7481 33.25 27.0559C33.25 23.4795 33.3398 19.1382 33.4573 14.9897Z" fill="#3E294D"/>
<rect x="1.5" y="1.5" width="35" height="35" rx="17.5" fill="white" stroke="#3E294D" stroke-width="3"/>
<path d="M24.2616 20.7999L28.7736 23.4049C29.4676 21.8648 29.7859 20.1818 29.7023 18.4945C28.6771 18.4148 27.6477 18.5826 26.7008 18.9838C25.754 19.385 24.9174 20.0079 24.2616 20.7999ZM14.8104 15.3433C15.1684 14.3793 15.2895 13.3434 15.1635 12.3228C15.0376 11.3022 14.6682 10.3268 14.0866 9.47877C12.5836 10.25 11.2852 11.3672 10.2984 12.7383L14.8104 15.3433ZM22.3862 19.7172C23.201 18.6413 24.2584 17.7732 25.4723 17.1833C26.6862 16.5935 28.0222 16.2987 29.3716 16.323C28.7504 13.895 27.2957 11.7626 25.2617 10.2984L20.4644 18.6076L22.3862 19.7172ZM16.6858 16.426L18.6076 17.5356L23.4049 9.2264C21.1205 8.19467 18.5456 8.001 16.1326 8.67942C16.8282 9.83589 17.2409 11.1403 17.3371 12.4865C17.4332 13.8326 17.2101 15.1825 16.6858 16.426ZM21.3142 21.574L19.3924 20.4644L14.595 28.7736C16.8794 29.8054 19.4544 29.999 21.8674 29.3206C21.1717 28.1641 20.759 26.8597 20.6629 25.5136C20.5667 24.1674 20.7899 22.8176 21.3142 21.574ZM8.29764 19.5055C9.32249 19.5815 10.3507 19.4119 11.2969 19.011C12.2431 18.61 13.0801 17.9892 13.7384 17.2001L9.22636 14.5951C8.51192 16.1756 8.21852 17.863 8.29764 19.5055ZM23.1895 22.6567C22.8315 23.6207 22.7104 24.6567 22.8364 25.6772C22.9624 26.6978 23.3317 27.6732 23.9134 28.5213C25.4164 27.75 26.7147 26.6329 27.7016 25.2617L23.1895 22.6567ZM15.6138 18.2829C14.7989 19.3587 13.7415 20.2269 12.5276 20.8167C11.3138 21.4065 9.97774 21.7013 8.62837 21.6771C9.24956 24.105 10.7043 26.2374 12.7382 27.7016L17.5356 19.3924L15.6138 18.2829Z" fill="#9259D4"/>
<defs>
<filter id="filter0_f_1656_7716" x="8" y="52" width="22" height="10.929" filterUnits="userSpaceOnUse" color-interpolation-filters="sRGB">
<feFlood flood-opacity="0" result="BackgroundImageFix"/>
<feBlend mode="normal" in="SourceGraphic" in2="BackgroundImageFix" result="shape"/>
<feGaussianBlur stdDeviation="2" result="effect1_foregroundBlur_1656_7716"/>
</filter>
</defs>
</svg>
