<svg width="38" height="63" viewBox="0 0 38 63" fill="none" xmlns="http://www.w3.org/2000/svg">
<g filter="url(#filter0_f_1656_7710)">
<path d="M12 57.0711C12 56.4795 12.4795 56 13.0711 56H24.9289C25.5205 56 26 56.4795 26 57.0711C26 57.6041 25.6081 58.056 25.0804 58.1314L19.9899 58.8586C19.3333 58.9524 18.6667 58.9524 18.01 58.8586L12.9196 58.1314C12.3919 58.056 12 57.6041 12 57.0711Z" fill="black" fill-opacity="0.5"/>
</g>
<path d="M33.4573 14.9897C33.6886 6.81972 27.1732 0 19 0C10.8267 0 4.31135 6.81967 4.5427 14.9896C4.66018 19.1381 4.75 23.4795 4.75 27.0559C4.75 32.7332 15.2537 47.1457 18.2253 51.1095C18.6183 51.6338 19.3817 51.6338 19.7747 51.1095C22.7464 47.1457 33.25 32.7332 33.25 27.0559C33.25 23.4795 33.3398 19.1382 33.4573 14.9897Z" fill="#3E294D"/>
<rect x="1.5" y="1.5" width="35" height="35" rx="17.5" fill="white" stroke="#3E294D" stroke-width="3"/>
<path d="M12.3423 9.25C11.7788 9.25 11.2524 9.50781 10.9014 9.95312L10.3056 10.7031C9.92692 11.1859 9.22957 11.2656 8.74927 10.8766C8.26898 10.4875 8.19508 9.78437 8.5784 9.29688L9.16491 8.54688C9.93616 7.57188 11.1046 7 12.3423 7H25.0147C26.2477 7 27.4161 7.57188 28.1874 8.54688L28.7785 9.29688C29.1618 9.78437 29.0833 10.4922 28.6076 10.8766C28.132 11.2609 27.43 11.1859 27.0513 10.7031L26.4602 9.95312C26.1092 9.50781 25.5781 9.25 25.0193 9.25H19.7868V11.5H21.6341C24.0818 11.5 26.0676 13.5156 26.0676 16V23.5C26.0676 24.9344 25.4072 26.2094 24.3774 27.0344L27.4023 30.1047C27.7302 30.4375 27.4993 31 27.0375 31H25.204C24.8115 31 24.4374 30.8406 24.1603 30.5594L21.6341 28H15.7228L13.2012 30.5594C12.9241 30.8406 12.5501 31 12.1575 31H10.3195C9.85765 31 9.62674 30.4328 9.95463 30.1047L12.9796 27.0344C11.9497 26.2094 11.2893 24.9344 11.2893 23.5V16C11.2893 13.5156 13.2751 11.5 15.7228 11.5H17.5701V9.25H12.3423ZM15.7228 14.5C14.9054 14.5 14.245 15.1703 14.245 16V17.5C14.245 18.3297 14.9054 19 15.7228 19H21.6341C22.4516 19 23.112 18.3297 23.112 17.5V16C23.112 15.1703 22.4516 14.5 21.6341 14.5H15.7228ZM17.2006 23.5C17.2006 22.6703 16.5402 22 15.7228 22C14.9054 22 14.245 22.6703 14.245 23.5C14.245 24.3297 14.9054 25 15.7228 25C16.5402 25 17.2006 24.3297 17.2006 23.5ZM21.6341 25C22.4516 25 23.112 24.3297 23.112 23.5C23.112 22.6703 22.4516 22 21.6341 22C20.8167 22 20.1563 22.6703 20.1563 23.5C20.1563 24.3297 20.8167 25 21.6341 25Z" fill="#3861CC"/>
<defs>
<filter id="filter0_f_1656_7710" x="8" y="52" width="22" height="10.929" filterUnits="userSpaceOnUse" color-interpolation-filters="sRGB">
<feFlood flood-opacity="0" result="BackgroundImageFix"/>
<feBlend mode="normal" in="SourceGraphic" in2="BackgroundImageFix" result="shape"/>
<feGaussianBlur stdDeviation="2" result="effect1_foregroundBlur_1656_7710"/>
</filter>
</defs>
</svg>
